<?xml version="1.0" encoding="iso-8859-1"?>
<!-- Generator: Adobe Illustrator 19.0.0, SVG Export Plug-In . SVG Version: 6.00 Build 0)  -->
<svg version="1.1" id="Capa_1" xmlns="http://www.w3.org/2000/svg" xmlns:xlink="http://www.w3.org/1999/xlink" x="0px" y="0px"
	 viewBox="0 0 479.924 479.924" style="enable-background:new 0 0 479.924 479.924;" xml:space="preserve">
<g>
	<g>
		<path d="M396.791,139.784C381.287,70.867,312.85,27.567,243.933,43.072c-34.888,7.849-64.896,29.944-82.75,60.928h-1.192
			c-50.189,0.125-93.158,36.006-102.232,85.368c-45.636,16.715-69.082,67.26-52.367,112.897
			C18.089,336.93,51.073,359.986,87.991,360h8v-16h-8c-39.765-0.004-71.997-32.242-71.993-72.007
			c0.003-31.748,20.8-59.746,51.193-68.921c3.003-0.915,5.193-3.503,5.6-6.616c5.841-43.714,43.097-76.38,87.2-76.456
			c1.256,0,2.488,0.088,3.72,0.168l1.6,0.104c3.145,0.223,6.118-1.456,7.552-4.264c28.665-54.758,96.293-75.911,151.051-47.246
			c30.533,15.983,51.998,45.143,58.189,79.046c0.575,3.189,3.017,5.716,6.184,6.4c51.8,11.305,84.627,62.462,73.322,114.262
			c-9.609,44.03-48.552,75.448-93.618,75.53v16c61.856-0.037,111.97-50.211,111.933-112.067
			C479.894,197.219,445.791,152.854,396.791,139.784z"/>
	</g>
</g>
<g>
	<g>
		<path d="M343.991,248h-224c-4.418,0-8,3.582-8,8v176c0,4.418,3.582,8,8,8h224c4.418,0,8-3.582,8-8V256
			C351.991,251.581,348.41,248,343.991,248z M159.991,424h-32v-4.688l56-56L244.679,424H159.991z M335.991,424h-68.688l-44-44
			l56.688-56.688l56,56V424z M335.991,356.688l-50.344-50.344c-3.124-3.123-8.188-3.123-11.312,0l-62.344,62.344l-22.344-22.344
			c-3.124-3.123-8.188-3.123-11.312,0l-50.344,50.344V264h208V356.688z"/>
	</g>
</g>
<g>
	<g>
		<path d="M207.991,280c-13.255,0-24,10.745-24,24s10.745,24,24,24s24-10.745,24-24S221.246,280,207.991,280z M207.991,312
			c-4.418,0-8-3.582-8-8s3.582-8,8-8s8,3.582,8,8S212.41,312,207.991,312z"/>
	</g>
</g>
<g>
</g>
<g>
</g>
<g>
</g>
<g>
</g>
<g>
</g>
<g>
</g>
<g>
</g>
<g>
</g>
<g>
</g>
<g>
</g>
<g>
</g>
<g>
</g>
<g>
</g>
<g>
</g>
<g>
</g>
</svg>
